<svg viewBox="0 0 745 200" xmlns="http://www.w3.org/2000/svg"><defs><symbol id="mark" viewBox="0 0 64 64">
  <rect x="27" y="5"  width="26" height="26" rx="7" fill="none" stroke="currentColor" stroke-width="3" opacity="0.22"/>
  <rect x="16" y="16" width="26" height="26" rx="7" fill="none" stroke="currentColor" stroke-width="3" opacity="0.46"/>
  <rect x="5"  y="27" width="26" height="26" rx="7" fill="currentColor"/>
  <rect x="11" y="35"   width="14" height="2.8" rx="1.4" fill="#fff"/>
  <rect x="11" y="40"   width="14" height="2.8" rx="1.4" fill="#fff"/>
  <rect x="11" y="44.8" width="9"  height="2.8" rx="1.4" fill="#fff"/>
</symbol></defs><use href="#mark" x="40" y="40" width="120" height="120" color="#7C3AED"/>
<g transform="translate(181.60,149.20) scale(1.4547)"><path d="M 52.00 -30.09 Q 51.41 -29.70 49.55 -29.14 Q 47.70 -28.59 43.30 -28.09 Q 42.00 -28.00 39.59 -27.89 Q 37.20 -27.80 34.45 -27.69 Q 31.70 -27.59 29.45 -27.64 Q 27.20 -27.70 26.30 -27.91 Q 26.30 -27.91 25.84 -27.41 Q 25.41 -26.91 25.41 -26.09 Q 24.70 -24.91 23.70 -22.55 Q 22.70 -20.20 21.55 -17.39 Q 20.41 -14.59 19.41 -11.84 Q 18.41 -9.09 17.75 -7.05 Q 17.09 -5.00 17.09 -4.20 Q 16.20 -1.80 16.00 -0.09 Q 15.80 1.59 15.30 1.91 Q 15.00 3.41 13.45 3.41 Q 11.91 3.41 11.09 2.50 Q 8.91 1.41 8.09 -0.34 Q 7.30 -2.09 8.00 -4.30 Q 8.30 -5.59 9.05 -8.14 Q 9.80 -10.70 10.75 -13.80 Q 11.70 -16.91 12.75 -19.84 Q 13.80 -22.80 14.80 -24.70 Q 15.91 -26.59 16.20 -28.14 Q 16.50 -29.70 17.00 -31.00 Q 16.91 -32.09 17.00 -32.44 Q 17.09 -32.80 17.80 -33.70 Q 18.30 -34.09 19.05 -35.14 Q 19.80 -36.20 20.80 -38.41 Q 21.09 -39.41 21.75 -41.16 Q 22.41 -42.91 23.00 -44.75 Q 23.59 -46.59 24.09 -47.89 Q 24.59 -49.20 24.59 -49.30 Q 24.80 -49.70 25.19 -50.84 Q 25.59 -52.00 25.80 -52.70 Q 26.20 -54.09 26.45 -55.00 Q 26.70 -55.91 26.30 -55.91 Q 25.50 -55.70 23.09 -55.59 Q 21.91 -55.41 21.34 -55.34 Q 20.80 -55.30 20.41 -55.20 Q 19.41 -55.09 18.59 -55.39 Q 17.80 -55.70 17.80 -56.59 Q 18.00 -58.20 18.95 -59.89 Q 19.91 -61.59 21.41 -61.70 Q 22.09 -61.91 22.94 -62.05 Q 23.80 -62.20 25.30 -62.59 Q 27.20 -63.00 28.64 -62.84 Q 30.09 -62.70 30.70 -62.50 Q 31.20 -62.80 31.55 -63.14 Q 31.91 -63.50 32.00 -63.91 Q 32.50 -65.70 33.80 -66.64 Q 35.09 -67.59 36.55 -67.64 Q 38.00 -67.70 38.89 -66.84 Q 39.80 -66.00 39.41 -64.09 Q 39.50 -63.80 39.64 -63.59 Q 39.80 -63.41 41.14 -63.66 Q 42.50 -63.91 45.91 -64.59 Q 47.70 -64.80 50.45 -65.00 Q 53.20 -65.20 54.80 -64.70 Q 56.50 -65.00 57.84 -64.95 Q 59.20 -64.91 59.70 -65.30 Q 61.80 -64.91 62.75 -64.75 Q 63.70 -64.59 64.30 -64.09 Q 64.70 -63.70 64.59 -63.34 Q 64.50 -63.00 64.50 -63.00 Q 64.09 -63.20 64.39 -63.05 Q 64.70 -62.91 65.20 -62.50 Q 65.91 -62.20 65.95 -61.25 Q 66.00 -60.30 65.84 -59.34 Q 65.70 -58.41 65.59 -58.09 Q 65.50 -57.20 64.59 -57.05 Q 63.70 -56.91 60.09 -57.00 Q 55.80 -57.59 52.14 -57.44 Q 48.50 -57.30 43.00 -56.50 Q 40.80 -56.41 39.25 -55.95 Q 37.70 -55.50 37.70 -55.50 Q 37.30 -55.50 36.30 -54.14 Q 35.30 -52.80 34.41 -50.20 Q 34.00 -49.50 33.05 -47.30 Q 32.09 -45.09 31.09 -42.55 Q 30.09 -40.00 29.30 -38.05 Q 28.50 -36.09 28.30 -35.91 Q 29.70 -35.50 32.64 -35.50 Q 35.59 -35.50 39.19 -35.75 Q 42.80 -36.00 46.00 -36.30 Q 47.50 -36.59 49.09 -36.80 Q 50.70 -37.00 51.30 -36.91 Q 52.50 -36.80 53.09 -35.34 Q 53.70 -33.91 53.50 -32.34 Q 53.30 -30.80 52.00 -30.09 Z M 56.90 -1.70 Q 56.10 -2.50 55.74 -4.09 Q 55.40 -5.70 55.49 -7.25 Q 55.60 -8.80 56.01 -9.59 Q 56.01 -10.41 56.26 -10.84 Q 56.51 -11.30 56.40 -11.70 Q 56.30 -12.09 56.60 -13.09 Q 56.90 -14.09 57.19 -15.00 Q 57.90 -16.59 58.79 -19.14 Q 59.69 -21.70 60.60 -24.34 Q 61.51 -27.00 62.10 -28.95 Q 62.69 -30.91 62.80 -31.30 Q 62.80 -32.50 64.40 -32.59 Q 65.60 -33.00 67.30 -31.59 Q 69.01 -30.20 70.01 -28.59 Q 70.80 -27.80 70.60 -26.50 Q 70.40 -25.20 69.30 -22.80 Q 68.90 -22.00 68.35 -20.14 Q 67.80 -18.30 67.60 -17.09 Q 67.19 -16.30 66.65 -14.84 Q 66.10 -13.41 65.69 -12.09 Q 65.51 -11.59 65.30 -10.25 Q 65.10 -8.91 64.80 -7.50 Q 64.51 -6.09 64.01 -5.30 Q 63.10 -1.20 60.85 -0.50 Q 58.60 0.20 56.90 -1.70 Z M 67.69 -41.80 Q 66.60 -42.59 66.05 -43.75 Q 65.51 -44.91 65.44 -45.80 Q 65.40 -46.70 65.60 -46.91 Q 66.60 -48.00 67.35 -49.80 Q 68.10 -51.59 69.01 -53.09 Q 69.19 -53.41 69.54 -53.95 Q 69.90 -54.50 70.30 -54.59 Q 71.51 -55.41 73.65 -54.50 Q 75.80 -53.59 76.80 -52.00 Q 77.69 -50.09 77.35 -48.09 Q 77.01 -46.09 75.19 -43.91 Q 73.69 -41.91 71.40 -41.34 Q 69.10 -40.80 67.69 -41.80 Z M 105.29 1.20 Q 104.90 1.20 104.25 1.09 Q 103.61 1.00 103.20 0.59 Q 102.79 0.59 101.79 0.30 Q 100.79 -0.00 100.00 -0.41 Q 99.00 -0.80 97.29 -2.05 Q 95.61 -3.30 93.90 -4.80 Q 92.20 -6.30 91.04 -7.59 Q 89.90 -8.91 89.90 -9.50 Q 89.90 -10.00 89.40 -10.00 Q 89.40 -10.00 89.09 -10.34 Q 88.79 -10.70 88.79 -11.09 Q 88.79 -12.09 87.79 -12.09 Q 87.79 -12.09 86.45 -10.69 Q 85.11 -9.30 83.11 -7.30 Q 80.29 -4.50 78.95 -3.25 Q 77.61 -2.00 76.79 -2.00 Q 76.00 -2.00 74.75 -2.75 Q 73.50 -3.50 72.54 -4.80 Q 71.61 -6.09 71.61 -7.91 Q 71.61 -7.91 73.65 -10.20 Q 75.70 -12.50 78.50 -14.91 L 83.61 -20.09 L 82.50 -23.91 Q 81.79 -25.50 81.04 -27.25 Q 80.29 -29.00 79.90 -30.20 Q 78.70 -31.91 78.65 -32.34 Q 78.61 -32.80 79.40 -34.00 L 79.40 -34.00 L 79.40 -34.00 Q 80.20 -34.80 82.04 -35.64 Q 83.90 -36.50 85.11 -35.70 Q 85.70 -35.70 86.70 -34.05 Q 87.70 -32.41 88.54 -30.45 Q 89.40 -28.50 89.40 -27.70 Q 89.40 -26.09 90.04 -26.00 Q 90.70 -25.91 93.11 -27.50 Q 94.29 -28.59 95.00 -29.34 Q 95.70 -30.09 95.70 -30.09 Q 96.00 -30.41 97.50 -31.66 Q 99.00 -32.91 100.59 -34.16 Q 102.20 -35.41 102.70 -35.59 Q 103.50 -36.20 104.70 -35.64 Q 105.90 -35.09 106.84 -34.05 Q 107.79 -33.00 107.79 -31.91 Q 107.79 -30.70 107.09 -29.25 Q 106.40 -27.80 104.40 -26.70 Q 102.61 -25.41 101.65 -24.59 Q 100.70 -23.80 99.70 -22.84 Q 98.70 -21.91 96.50 -20.00 L 93.90 -17.91 L 95.50 -15.20 Q 95.90 -14.50 96.65 -13.59 Q 97.40 -12.70 98.11 -12.30 Q 98.70 -11.50 100.20 -10.25 Q 101.70 -9.00 103.09 -8.00 Q 104.50 -7.00 104.70 -7.00 Q 105.11 -7.00 105.61 -6.70 Q 106.11 -6.41 106.79 -6.00 Q 107.61 -5.20 107.50 -3.45 Q 107.40 -1.70 106.75 -0.25 Q 106.11 1.20 105.29 1.20 Z" fill="#18181B"/><g transform="translate(116.11,0)"><path d="M 20.30 7.20 Q 16.00 4.41 15.25 1.59 Q 14.50 -1.20 17.20 -2.91 Q 17.80 -3.30 19.55 -3.00 Q 21.30 -2.70 22.20 -1.80 Q 24.20 -0.00 26.75 0.45 Q 29.30 0.91 33.00 -0.09 Q 37.20 -1.41 39.45 -3.34 Q 41.70 -5.30 44.50 -8.70 Q 46.59 -11.41 47.44 -14.00 Q 48.30 -16.59 48.25 -18.75 Q 48.20 -20.91 47.20 -22.00 Q 44.70 -25.50 41.00 -26.84 Q 37.30 -28.20 31.30 -26.59 Q 30.59 -26.50 29.19 -26.20 Q 27.80 -25.91 26.69 -25.66 Q 25.59 -25.41 25.50 -25.41 Q 24.80 -25.20 24.39 -25.20 Q 24.00 -25.20 23.45 -24.25 Q 22.91 -23.30 21.80 -20.34 Q 20.70 -17.41 18.50 -11.30 Q 16.41 -5.20 14.95 -2.64 Q 13.50 -0.09 12.39 -0.34 Q 11.30 -0.59 9.91 -2.50 Q 9.09 -3.91 8.14 -5.59 Q 7.20 -7.30 8.20 -9.09 Q 8.70 -10.00 9.00 -10.75 Q 9.30 -11.50 9.80 -13.41 Q 10.30 -14.91 11.75 -18.66 Q 13.20 -22.41 15.20 -27.45 Q 17.20 -32.50 19.39 -37.89 Q 21.59 -43.30 23.64 -48.09 Q 25.70 -52.91 27.09 -56.20 Q 28.50 -59.30 28.80 -60.69 Q 29.09 -62.09 28.59 -62.20 Q 28.59 -62.70 28.30 -63.14 Q 28.00 -63.59 28.09 -64.00 Q 28.09 -64.41 29.84 -65.09 Q 31.59 -65.80 33.59 -66.39 Q 35.59 -67.00 36.50 -66.80 Q 37.00 -66.80 37.70 -66.84 Q 38.41 -66.91 38.41 -67.30 Q 38.70 -67.30 40.30 -67.50 Q 41.91 -67.70 43.80 -67.50 Q 50.50 -66.91 54.80 -63.66 Q 59.09 -60.41 59.00 -53.30 Q 58.91 -51.59 57.59 -48.89 Q 56.30 -46.20 54.34 -43.50 Q 52.41 -40.80 50.20 -38.80 Q 48.91 -37.70 47.45 -36.55 Q 46.00 -35.41 44.95 -34.66 Q 43.91 -33.91 43.91 -33.91 Q 43.91 -33.91 44.70 -33.59 Q 45.50 -33.30 46.41 -33.00 Q 51.00 -31.30 53.64 -28.69 Q 56.30 -26.09 57.41 -21.50 Q 57.80 -20.00 57.44 -17.80 Q 57.09 -15.59 56.50 -13.44 Q 55.91 -11.30 55.20 -9.80 Q 54.50 -9.09 54.09 -8.34 Q 53.70 -7.59 53.70 -7.59 Q 53.70 -7.41 52.89 -6.05 Q 52.09 -4.70 51.00 -3.09 Q 49.91 -1.50 48.91 -0.30 Q 47.91 0.50 46.05 1.95 Q 44.20 3.41 42.05 4.80 Q 39.91 6.20 38.00 6.91 Q 35.20 8.09 31.75 8.55 Q 28.30 9.00 25.19 8.64 Q 22.09 8.30 20.30 7.20 Z M 27.50 -34.30 Q 27.50 -34.30 29.14 -34.64 Q 30.80 -35.00 32.80 -35.45 Q 34.80 -35.91 35.80 -36.30 Q 36.30 -36.59 37.25 -37.09 Q 38.20 -37.59 39.20 -38.59 Q 40.59 -39.91 42.19 -41.55 Q 43.80 -43.20 45.34 -45.09 Q 46.91 -47.00 48.00 -49.20 Q 50.30 -52.80 50.50 -54.39 Q 50.70 -56.00 49.41 -57.30 Q 48.50 -58.41 46.89 -58.95 Q 45.30 -59.50 43.44 -59.55 Q 41.59 -59.59 39.91 -59.09 Q 38.59 -58.70 37.89 -58.14 Q 37.20 -57.59 37.20 -56.50 Q 37.20 -55.59 36.64 -54.64 Q 36.09 -53.70 35.59 -53.20 Q 35.50 -52.50 34.95 -51.84 Q 34.41 -51.20 34.41 -51.20 Q 34.41 -50.80 33.16 -48.75 Q 31.91 -46.70 30.50 -42.91 Q 28.70 -38.59 28.09 -36.69 Q 27.50 -34.80 27.50 -34.30 Z M 64.71 -2.09 Q 64.30 -2.91 62.94 -3.70 Q 61.60 -4.50 61.60 -4.91 Q 61.60 -5.30 61.14 -6.14 Q 60.71 -7.00 60.30 -7.41 Q 59.80 -8.00 60.60 -10.34 Q 61.39 -12.70 62.99 -16.09 Q 64.60 -19.50 66.50 -23.00 Q 67.30 -23.80 68.10 -25.09 Q 68.89 -26.41 69.30 -26.80 Q 69.30 -27.20 69.60 -27.55 Q 69.89 -27.91 70.30 -27.91 L 71.10 -29.50 Q 71.30 -29.91 72.35 -31.09 Q 73.39 -32.30 74.89 -33.75 Q 76.39 -35.20 77.94 -36.50 Q 79.50 -37.80 80.50 -38.41 Q 82.60 -39.80 84.85 -39.69 Q 87.10 -39.59 88.71 -38.30 Q 89.00 -38.00 90.05 -37.09 Q 91.10 -36.20 92.44 -35.09 Q 93.80 -34.00 94.80 -33.09 L 98.50 -29.80 L 96.80 -24.80 Q 95.50 -20.80 96.14 -17.80 Q 96.80 -14.80 98.00 -12.59 Q 98.50 -11.50 99.35 -10.89 Q 100.21 -10.30 101.60 -10.09 Q 102.39 -10.00 103.10 -9.50 Q 103.80 -9.00 103.80 -7.91 Q 103.80 -5.50 102.94 -4.45 Q 102.10 -3.41 101.10 -3.20 Q 97.80 -2.80 94.80 -3.89 Q 91.80 -5.00 89.39 -9.59 Q 89.00 -10.20 88.35 -11.84 Q 87.71 -13.50 87.60 -14.00 Q 87.21 -13.50 86.55 -12.75 Q 85.89 -12.00 85.30 -11.41 Q 78.21 -4.20 73.14 -2.05 Q 68.10 0.09 64.71 -2.09 Z M 70.21 -10.41 Q 70.89 -10.30 72.39 -11.14 Q 73.89 -12.00 76.39 -14.00 Q 79.80 -16.91 82.00 -18.80 Q 84.21 -20.70 86.30 -23.70 L 88.50 -27.30 Q 87.50 -29.59 86.69 -30.30 Q 85.89 -31.00 85.10 -31.00 Q 83.80 -31.00 82.00 -29.34 Q 80.21 -27.70 77.96 -24.55 Q 75.71 -21.41 72.89 -16.70 Q 71.60 -14.50 70.89 -12.45 Q 70.21 -10.41 70.21 -10.41 Z M 118.99 0.41 Q 116.10 0.91 113.24 -0.09 Q 110.40 -1.09 108.54 -3.34 Q 106.70 -5.59 106.70 -8.80 Q 106.40 -11.80 107.24 -15.94 Q 108.10 -20.09 109.85 -24.30 Q 111.60 -28.50 113.90 -31.41 Q 115.90 -33.80 117.90 -35.80 Q 119.90 -37.80 121.49 -38.50 Q 122.90 -39.09 124.95 -39.44 Q 126.99 -39.80 127.81 -39.80 Q 129.40 -39.41 131.35 -38.50 Q 133.31 -37.59 133.31 -36.41 Q 133.31 -36.41 133.56 -36.16 Q 133.81 -35.91 133.81 -35.91 Q 134.40 -35.91 135.15 -34.45 Q 135.90 -33.00 136.29 -31.14 Q 136.70 -29.30 136.10 -28.20 Q 135.70 -26.30 134.54 -24.50 Q 133.40 -22.70 132.60 -22.70 Q 132.20 -22.70 131.84 -22.64 Q 131.49 -22.59 131.49 -22.09 Q 131.49 -21.59 130.45 -21.59 Q 129.40 -21.59 128.29 -22.00 Q 127.20 -22.41 126.90 -23.20 Q 126.90 -23.70 127.10 -24.50 Q 127.31 -25.30 127.70 -27.20 Q 128.31 -30.00 127.81 -30.95 Q 127.31 -31.91 125.31 -31.09 Q 122.81 -29.70 121.20 -27.84 Q 119.60 -26.00 118.35 -22.70 Q 117.10 -19.41 115.60 -13.50 Q 114.99 -11.20 115.45 -9.89 Q 115.90 -8.59 116.20 -8.50 Q 117.60 -8.09 119.24 -8.34 Q 120.90 -8.59 121.99 -9.20 Q 123.60 -10.00 124.85 -10.95 Q 126.10 -11.91 127.60 -13.00 Q 128.10 -13.30 128.49 -14.14 Q 128.90 -15.00 129.70 -15.41 Q 130.49 -16.59 131.74 -16.64 Q 132.99 -16.70 134.20 -16.70 Q 134.99 -16.50 135.90 -15.70 Q 136.81 -14.91 137.24 -14.16 Q 137.70 -13.41 137.10 -13.09 Q 136.70 -13.09 136.65 -12.84 Q 136.60 -12.59 136.60 -12.59 Q 136.81 -12.20 135.74 -10.80 Q 134.70 -9.41 133.09 -7.80 Q 131.49 -6.20 130.04 -5.05 Q 128.60 -3.91 127.99 -3.91 Q 126.99 -3.91 126.99 -3.30 Q 126.99 -3.09 125.54 -2.30 Q 124.10 -1.50 122.24 -0.70 Q 120.40 0.09 118.99 0.41 Z M 146.10 0.30 Q 145.30 -0.00 144.00 -1.34 Q 142.71 -2.70 141.71 -4.34 Q 140.71 -6.00 140.71 -7.09 Q 141.21 -8.20 142.05 -11.00 Q 142.89 -13.80 144.00 -17.30 Q 144.80 -18.41 145.25 -19.84 Q 145.71 -21.30 146.10 -22.50 Q 146.89 -24.30 147.89 -26.59 Q 148.89 -28.91 149.85 -31.30 Q 150.80 -33.70 151.60 -35.50 Q 153.00 -38.50 153.94 -40.75 Q 154.89 -43.00 155.85 -45.20 Q 156.80 -47.41 157.89 -50.09 Q 159.39 -53.20 160.64 -56.25 Q 161.89 -59.30 162.85 -61.69 Q 163.80 -64.09 164.00 -65.09 Q 163.89 -65.91 164.19 -66.25 Q 164.50 -66.59 165.00 -66.70 Q 165.50 -67.00 166.60 -67.09 Q 167.71 -67.20 168.10 -67.20 Q 169.30 -67.00 170.55 -65.25 Q 171.80 -63.50 171.80 -62.30 Q 171.80 -60.70 170.25 -56.34 Q 168.71 -52.00 165.80 -46.09 Q 162.30 -38.59 160.55 -34.50 Q 158.80 -30.41 158.19 -28.70 Q 157.60 -27.00 157.71 -26.50 Q 157.71 -26.50 158.50 -26.80 Q 159.30 -27.09 160.89 -28.20 Q 162.00 -28.91 163.39 -30.00 Q 164.80 -31.09 166.14 -32.00 Q 167.50 -32.91 168.30 -33.09 Q 168.80 -33.50 169.69 -34.09 Q 170.60 -34.70 171.39 -35.20 Q 173.30 -36.59 174.39 -36.09 Q 175.50 -35.59 176.39 -34.41 Q 177.50 -33.09 177.25 -31.64 Q 177.00 -30.20 174.10 -27.91 Q 171.89 -26.30 169.39 -24.84 Q 166.89 -23.41 164.85 -22.30 Q 162.80 -21.20 161.89 -20.50 Q 161.89 -20.50 162.80 -19.20 Q 163.71 -17.91 164.50 -16.70 Q 165.30 -15.09 166.50 -12.64 Q 167.71 -10.20 168.30 -9.20 Q 169.39 -7.59 170.55 -7.09 Q 171.71 -6.59 174.00 -7.41 Q 175.50 -7.80 176.55 -7.34 Q 177.60 -6.91 178.30 -5.91 Q 178.71 -5.09 178.71 -4.30 Q 178.71 -3.50 177.39 -2.41 Q 174.60 -0.50 171.94 0.84 Q 169.30 2.20 166.89 0.59 Q 164.80 -1.00 162.94 -3.05 Q 161.10 -5.09 158.80 -8.09 Q 158.80 -8.50 158.19 -9.80 Q 157.60 -11.09 157.39 -11.30 Q 157.00 -12.09 156.55 -12.75 Q 156.10 -13.41 156.10 -13.41 Q 155.80 -14.50 155.35 -15.20 Q 154.89 -15.91 154.21 -16.00 Q 153.80 -15.70 153.30 -15.00 Q 152.80 -14.30 152.30 -13.30 Q 151.71 -11.80 151.10 -10.34 Q 150.50 -8.91 150.10 -7.25 Q 149.71 -5.59 149.60 -3.30 Q 149.71 -2.20 148.71 -0.95 Q 147.71 0.30 146.10 0.30 Z M 204.29 -0.20 Q 203.29 -1.20 202.70 -2.95 Q 202.11 -4.70 201.50 -7.00 Q 201.29 -7.80 201.34 -8.80 Q 201.40 -9.80 201.29 -10.41 Q 201.00 -9.70 200.34 -8.59 Q 199.70 -7.50 199.11 -7.00 Q 198.70 -6.59 197.29 -5.44 Q 195.90 -4.30 194.50 -3.59 Q 191.20 -1.50 188.65 -1.64 Q 186.11 -1.80 184.20 -4.20 Q 182.61 -5.50 181.61 -7.50 Q 180.61 -9.50 181.20 -12.30 Q 181.40 -15.80 182.20 -19.14 Q 183.00 -22.50 185.50 -28.09 Q 187.61 -32.20 188.70 -34.50 Q 189.79 -36.80 190.11 -37.20 Q 191.61 -37.70 193.79 -37.14 Q 196.00 -36.59 196.20 -35.20 Q 196.79 -34.20 196.20 -31.45 Q 195.61 -28.70 193.79 -25.20 Q 192.40 -21.80 191.15 -18.59 Q 189.90 -15.41 189.65 -13.20 Q 189.40 -11.00 190.79 -10.50 Q 191.70 -10.00 193.45 -10.59 Q 195.20 -11.20 197.59 -14.20 Q 200.00 -17.20 202.70 -23.70 Q 203.50 -25.70 203.89 -27.25 Q 204.29 -28.80 204.40 -30.70 Q 204.20 -31.91 205.04 -33.20 Q 205.90 -34.50 207.11 -35.20 Q 207.50 -35.70 208.20 -36.14 Q 208.90 -36.59 209.11 -36.09 L 210.70 -36.20 Q 211.11 -36.30 211.61 -35.39 Q 212.11 -34.50 212.61 -34.09 Q 213.70 -33.20 213.59 -30.20 Q 213.50 -27.20 211.20 -21.80 Q 209.29 -17.70 208.64 -15.59 Q 208.00 -13.50 207.90 -11.50 Q 207.90 -9.70 208.20 -8.45 Q 208.50 -7.20 210.00 -5.91 Q 211.11 -5.20 211.25 -3.55 Q 211.40 -1.91 211.29 -0.70 Q 211.11 0.20 209.75 0.55 Q 208.40 0.91 206.84 0.70 Q 205.29 0.50 204.29 -0.20 Z M 213.79 23.30 Q 213.40 23.30 212.65 23.34 Q 211.90 23.41 211.40 22.50 Q 211.00 22.00 210.20 20.55 Q 209.40 19.09 209.90 16.50 Q 210.40 14.80 210.70 13.14 Q 211.00 11.50 211.00 10.70 Q 211.00 10.30 211.25 9.14 Q 211.50 8.00 211.50 7.50 Q 212.00 6.70 212.29 5.30 Q 212.61 3.91 212.61 2.80 Q 212.61 1.59 213.79 0.59 Q 213.79 -0.20 214.14 -1.39 Q 214.50 -2.59 214.50 -3.00 Q 214.79 -4.41 215.84 -7.95 Q 216.90 -11.50 218.45 -16.00 Q 220.00 -20.50 221.50 -24.80 Q 223.00 -29.09 224.20 -32.09 Q 225.40 -34.91 226.20 -37.30 Q 227.00 -39.70 227.00 -40.70 Q 227.00 -41.09 227.20 -41.34 Q 227.40 -41.59 228.11 -42.41 Q 229.11 -43.41 230.75 -43.16 Q 232.40 -42.91 233.50 -42.09 Q 234.29 -40.80 234.64 -39.75 Q 235.00 -38.70 234.61 -36.50 Q 234.61 -35.00 233.90 -33.75 Q 233.20 -32.50 232.65 -31.75 Q 232.11 -31.00 232.29 -31.09 Q 236.70 -33.80 240.25 -34.05 Q 243.79 -34.30 246.25 -32.84 Q 248.70 -31.41 250.00 -28.91 Q 251.29 -26.41 251.29 -23.50 Q 251.29 -22.30 250.50 -20.30 Q 249.70 -18.30 248.70 -16.55 Q 247.70 -14.80 247.11 -14.20 Q 246.70 -14.20 246.29 -13.55 Q 245.90 -12.91 245.50 -12.09 Q 244.70 -11.09 242.84 -9.84 Q 241.00 -8.59 239.09 -7.84 Q 237.20 -7.09 236.40 -7.41 Q 236.40 -7.41 236.15 -7.20 Q 235.90 -7.00 235.90 -6.50 Q 235.90 -6.30 234.50 -5.69 Q 233.11 -5.09 231.20 -4.59 Q 229.29 -4.09 227.70 -4.09 Q 225.61 -4.09 224.70 -4.91 Q 224.50 -4.70 224.25 -4.30 Q 224.00 -3.91 224.00 -3.59 Q 224.00 -3.00 223.54 -1.70 Q 223.11 -0.41 222.50 0.64 Q 221.90 1.70 221.40 1.70 Q 221.40 1.70 221.20 2.00 Q 221.00 2.30 221.40 2.80 Q 221.40 2.80 221.34 3.94 Q 221.29 5.09 220.79 5.91 Q 220.79 6.70 220.50 8.30 Q 220.20 9.91 219.79 10.70 Q 219.79 11.91 219.45 13.05 Q 219.11 14.20 218.70 14.20 Q 218.29 14.30 218.20 15.44 Q 218.11 16.59 218.11 17.09 Q 218.00 19.59 216.50 21.44 Q 215.00 23.30 213.79 23.30 Z M 226.61 -11.70 Q 227.40 -11.70 229.50 -12.39 Q 231.61 -13.09 233.90 -14.14 Q 236.20 -15.20 237.50 -16.30 Q 240.11 -18.59 241.54 -20.80 Q 243.00 -23.00 241.29 -25.70 Q 240.50 -27.09 238.75 -26.84 Q 237.00 -26.59 234.89 -25.19 Q 232.79 -23.80 230.61 -21.70 Q 229.40 -20.41 228.40 -18.70 Q 227.40 -17.00 226.75 -15.39 Q 226.11 -13.80 226.00 -12.75 Q 225.90 -11.70 226.61 -11.70 Z" fill="#7C3AED"/></g></g>
<text x="192.8" y="182.8" font-family="sans-serif" font-size="16.2" font-weight="600" letter-spacing="6.60" fill="#9CA3AF">KUR. PLANLA. UNUT.</text></svg>